<?xml version="1.0" encoding="UTF-8" standalone="no"?>
<!DOCTYPE svg PUBLIC "-//W3C//DTD SVG 1.1//EN"
 "http://www.w3.org/Graphics/SVG/1.1/DTD/svg11.dtd">
<!-- Generated by graphviz version 2.47.0 (0)
 -->
<!-- Pages: 1 -->
<svg width="612pt" height="212pt"
 viewBox="0.00 0.00 612.00 211.54" xmlns="http://www.w3.org/2000/svg" xmlns:xlink="http://www.w3.org/1999/xlink">
<g id="graph0" class="graph" transform="scale(0.54 0.54) rotate(0) translate(4 391)">
<polygon fill="white" stroke="transparent" points="-4,4 -4,-391 1138.77,-391 1138.77,4 -4,4"/>
<!-- mdp_Ms||Mt_start -->
<g id="node1" class="node">
<title>mdp_Ms||Mt_start</title>
<text text-anchor="start" x="8" y="-127.72" font-family="Times,serif" font-weight="bold" font-size="21.60">Ms||Mt</text>
</g>
<!-- state_s0_t0 -->
<g id="node2" class="node">
<title>state_s0_t0</title>
<ellipse fill="none" stroke="black" cx="139.18" cy="-132" rx="38.37" ry="25.41"/>
<text text-anchor="start" x="124.18" y="-128.6" font-family="Times,serif" font-style="italic" font-size="18.00">s</text>
<text text-anchor="start" x="131.18" y="-128.6" font-family="Times,serif" font-style="italic" baseline-shift="sub" font-size="9.00">0</text>
<text text-anchor="start" x="135.18" y="-128.6" font-family="Times,serif" font-style="italic" font-size="18.00">_t</text>
<text text-anchor="start" x="150.18" y="-128.6" font-family="Times,serif" font-style="italic" baseline-shift="sub" font-size="9.00">0</text>
</g>
<!-- mdp_Ms||Mt_start&#45;&gt;state_s0_t0 -->
<g id="edge1" class="edge">
<title>mdp_Ms||Mt_start&#45;&gt;state_s0_t0</title>
<path fill="none" stroke="black" d="M82.23,-132C85.03,-132 87.87,-132 90.7,-132"/>
<polygon fill="black" stroke="black" points="90.88,-135.5 100.88,-132 90.88,-128.5 90.88,-135.5"/>
</g>
<!-- state_s1_t0 -->
<g id="node3" class="node">
<title>state_s1_t0</title>
<ellipse fill="none" stroke="black" cx="292.55" cy="-197" rx="38.37" ry="25.41"/>
<text text-anchor="start" x="277.55" y="-193.6" font-family="Times,serif" font-style="italic" font-size="18.00">s</text>
<text text-anchor="start" x="284.55" y="-193.6" font-family="Times,serif" font-style="italic" baseline-shift="sub" font-size="9.00">1</text>
<text text-anchor="start" x="288.55" y="-193.6" font-family="Times,serif" font-style="italic" font-size="18.00">_t</text>
<text text-anchor="start" x="303.55" y="-193.6" font-family="Times,serif" font-style="italic" baseline-shift="sub" font-size="9.00">0</text>
</g>
<!-- state_s0_t0&#45;&gt;state_s1_t0 -->
<g id="edge2" class="edge">
<title>state_s0_t0&#45;&gt;state_s1_t0</title>
<path fill="none" stroke="black" d="M171.92,-145.63C194.8,-155.45 225.88,-168.8 250.63,-179.43"/>
<polygon fill="black" stroke="black" points="249.55,-182.77 260.12,-183.5 252.31,-176.34 249.55,-182.77"/>
<text text-anchor="start" x="200.37" y="-174.6" font-family="Times,serif" font-style="italic" font-size="18.00">a</text>
</g>
<!-- state_s0_t1 -->
<g id="node4" class="node">
<title>state_s0_t1</title>
<ellipse fill="none" stroke="black" cx="632.29" cy="-92" rx="38.37" ry="25.41"/>
<text text-anchor="start" x="617.29" y="-88.6" font-family="Times,serif" font-style="italic" font-size="18.00">s</text>
<text text-anchor="start" x="624.29" y="-88.6" font-family="Times,serif" font-style="italic" baseline-shift="sub" font-size="9.00">0</text>
<text text-anchor="start" x="628.29" y="-88.6" font-family="Times,serif" font-style="italic" font-size="18.00">_t</text>
<text text-anchor="start" x="643.29" y="-88.6" font-family="Times,serif" font-style="italic" baseline-shift="sub" font-size="9.00">1</text>
</g>
<!-- state_s0_t0&#45;&gt;state_s0_t1 -->
<g id="edge3" class="edge">
<title>state_s0_t0&#45;&gt;state_s0_t1</title>
<path fill="none" stroke="black" d="M147.26,-106.66C156.07,-81.29 173.81,-46 204.37,-46 204.37,-46 204.37,-46 546.1,-46 565.49,-46 584.7,-55.34 599.96,-65.6"/>
<polygon fill="black" stroke="black" points="598.29,-68.71 608.46,-71.69 602.37,-63.02 598.29,-68.71"/>
<text text-anchor="start" x="371.24" y="-56.6" font-family="Times,serif" font-style="italic" font-size="18.00">x</text>
</g>
<!-- p_point_s1_t0_b -->
<g id="node5" class="node">
<title>p_point_s1_t0_b</title>
<ellipse fill="black" stroke="black" cx="375.24" cy="-289" rx="1.8" ry="1.8"/>
</g>
<!-- state_s1_t0&#45;&gt;p_point_s1_t0_b -->
<g id="edge4" class="edge">
<title>state_s1_t0&#45;&gt;p_point_s1_t0_b</title>
<path fill="none" stroke="black" d="M319.34,-215.33C332.1,-225.37 347.03,-238.66 357.74,-253 366.79,-265.12 372.47,-283 373.88,-287.78"/>
<text text-anchor="start" x="343.74" y="-263.6" font-family="Times,serif" font-style="italic" font-size="18.00">b</text>
</g>
<!-- state_s1_t1 -->
<g id="node7" class="node">
<title>state_s1_t1</title>
<ellipse fill="none" stroke="black" cx="461.92" cy="-144" rx="38.37" ry="25.41"/>
<text text-anchor="start" x="446.92" y="-140.6" font-family="Times,serif" font-style="italic" font-size="18.00">s</text>
<text text-anchor="start" x="453.92" y="-140.6" font-family="Times,serif" font-style="italic" baseline-shift="sub" font-size="9.00">1</text>
<text text-anchor="start" x="457.92" y="-140.6" font-family="Times,serif" font-style="italic" font-size="18.00">_t</text>
<text text-anchor="start" x="472.92" y="-140.6" font-family="Times,serif" font-style="italic" baseline-shift="sub" font-size="9.00">1</text>
</g>
<!-- state_s1_t0&#45;&gt;state_s1_t1 -->
<g id="edge7" class="edge">
<title>state_s1_t0&#45;&gt;state_s1_t1</title>
<path fill="none" stroke="black" d="M327.42,-186.27C353.4,-178.05 389.44,-166.64 417.53,-157.74"/>
<polygon fill="black" stroke="black" points="418.62,-161.07 427.1,-154.71 416.51,-154.39 418.62,-161.07"/>
<text text-anchor="start" x="371.24" y="-184.6" font-family="Times,serif" font-style="italic" font-size="18.00">x</text>
</g>
<!-- state_s0_t1&#45;&gt;state_s1_t1 -->
<g id="edge8" class="edge">
<title>state_s0_t1&#45;&gt;state_s1_t1</title>
<path fill="none" stroke="black" d="M593.92,-91.79C576.05,-92.63 554.58,-95.02 536.1,-101 522.58,-105.37 508.87,-112.55 497.02,-119.8"/>
<polygon fill="black" stroke="black" points="494.91,-116.99 488.36,-125.32 498.67,-122.9 494.91,-116.99"/>
<text text-anchor="start" x="540.1" y="-111.6" font-family="Times,serif" font-style="italic" font-size="18.00">a</text>
</g>
<!-- p_point_s0_t1_y -->
<g id="node8" class="node">
<title>p_point_s0_t1_y</title>
<ellipse fill="black" stroke="black" cx="707.27" cy="-92" rx="1.8" ry="1.8"/>
</g>
<!-- state_s0_t1&#45;&gt;p_point_s0_t1_y -->
<g id="edge9" class="edge">
<title>state_s0_t1&#45;&gt;p_point_s0_t1_y</title>
<path fill="none" stroke="black" d="M670.63,-92C686.06,-92 701.29,-92 705.27,-92"/>
<text text-anchor="start" x="683.97" y="-102.6" font-family="Times,serif" font-style="italic" font-size="18.00">y</text>
</g>
<!-- p_point_s1_t0_b&#45;&gt;state_s0_t0 -->
<g id="edge5" class="edge">
<title>p_point_s1_t0_b&#45;&gt;state_s0_t0</title>
<path fill="none" stroke="black" d="M373.35,-288.9C369.35,-288.4 352.53,-286.09 339.74,-281 330.44,-277.3 209.26,-206.78 196.37,-196 184.6,-186.15 173.13,-173.77 163.66,-162.52"/>
<polygon fill="black" stroke="black" points="166.2,-160.09 157.15,-154.59 160.79,-164.54 166.2,-160.09"/>
<text text-anchor="start" x="227.37" y="-237.6" font-family="Times,serif" font-style="italic" font-size="18.00">.5</text>
</g>
<!-- state_s2_t0 -->
<g id="node6" class="node">
<title>state_s2_t0</title>
<ellipse fill="none" stroke="black" cx="461.92" cy="-289" rx="38.37" ry="25.41"/>
<text text-anchor="start" x="446.92" y="-285.6" font-family="Times,serif" font-style="italic" font-size="18.00">s</text>
<text text-anchor="start" x="453.92" y="-285.6" font-family="Times,serif" font-style="italic" baseline-shift="sub" font-size="9.00">2</text>
<text text-anchor="start" x="457.92" y="-285.6" font-family="Times,serif" font-style="italic" font-size="18.00">_t</text>
<text text-anchor="start" x="472.92" y="-285.6" font-family="Times,serif" font-style="italic" baseline-shift="sub" font-size="9.00">0</text>
</g>
<!-- p_point_s1_t0_b&#45;&gt;state_s2_t0 -->
<g id="edge6" class="edge">
<title>p_point_s1_t0_b&#45;&gt;state_s2_t0</title>
<path fill="none" stroke="black" d="M377.19,-289C381.1,-289 396.53,-289 413.1,-289"/>
<polygon fill="black" stroke="black" points="413.47,-292.5 423.47,-289 413.47,-285.5 413.47,-292.5"/>
<text text-anchor="start" x="396.74" y="-299.6" font-family="Times,serif" font-style="italic" font-size="18.00">.5</text>
</g>
<!-- state_s2_t0&#45;&gt;state_s2_t0 -->
<g id="edge12" class="edge">
<title>state_s2_t0&#45;&gt;state_s2_t0</title>
<path fill="none" stroke="black" d="M451.51,-313.57C450.79,-323.79 454.26,-332.46 461.92,-332.46 466.82,-332.46 470.01,-328.9 471.48,-323.66"/>
<polygon fill="black" stroke="black" points="474.98,-323.83 472.33,-313.57 468,-323.24 474.98,-323.83"/>
<text text-anchor="start" x="457.92" y="-343.06" font-family="Times,serif" font-style="italic" font-size="18.00">c</text>
</g>
<!-- state_s2_t1 -->
<g id="node10" class="node">
<title>state_s2_t1</title>
<ellipse fill="none" stroke="black" cx="632.29" cy="-272" rx="38.37" ry="25.41"/>
<text text-anchor="start" x="617.29" y="-268.6" font-family="Times,serif" font-style="italic" font-size="18.00">s</text>
<text text-anchor="start" x="624.29" y="-268.6" font-family="Times,serif" font-style="italic" baseline-shift="sub" font-size="9.00">2</text>
<text text-anchor="start" x="628.29" y="-268.6" font-family="Times,serif" font-style="italic" font-size="18.00">_t</text>
<text text-anchor="start" x="643.29" y="-268.6" font-family="Times,serif" font-style="italic" baseline-shift="sub" font-size="9.00">1</text>
</g>
<!-- state_s2_t0&#45;&gt;state_s2_t1 -->
<g id="edge13" class="edge">
<title>state_s2_t0&#45;&gt;state_s2_t1</title>
<path fill="none" stroke="black" d="M499.87,-285.27C524.65,-282.77 557.51,-279.45 584.17,-276.76"/>
<polygon fill="black" stroke="black" points="584.83,-280.21 594.42,-275.72 584.12,-273.24 584.83,-280.21"/>
<text text-anchor="start" x="541.1" y="-292.6" font-family="Times,serif" font-style="italic" font-size="18.00">x</text>
</g>
<!-- p_point_s1_t1_b -->
<g id="node11" class="node">
<title>p_point_s1_t1_b</title>
<ellipse fill="black" stroke="black" cx="545.1" cy="-140" rx="1.8" ry="1.8"/>
</g>
<!-- state_s1_t1&#45;&gt;p_point_s1_t1_b -->
<g id="edge14" class="edge">
<title>state_s1_t1&#45;&gt;p_point_s1_t1_b</title>
<path fill="none" stroke="black" d="M494.01,-130.09C498.97,-128.4 504.11,-126.94 509.1,-126 516.96,-124.52 519.57,-123.3 527.1,-126 534.59,-128.69 541.13,-136.25 543.32,-138.99"/>
<text text-anchor="start" x="513.1" y="-136.6" font-family="Times,serif" font-style="italic" font-size="18.00">b</text>
</g>
<!-- p_point_s1_t1_y -->
<g id="node12" class="node">
<title>p_point_s1_t1_y</title>
<ellipse fill="black" stroke="black" cx="545.1" cy="-219" rx="1.8" ry="1.8"/>
</g>
<!-- state_s1_t1&#45;&gt;p_point_s1_t1_y -->
<g id="edge17" class="edge">
<title>state_s1_t1&#45;&gt;p_point_s1_t1_y</title>
<path fill="none" stroke="black" d="M496.29,-155.68C507.24,-160.83 518.74,-167.84 527.1,-177 538.77,-189.78 542.94,-211.61 543.88,-217.5"/>
<text text-anchor="start" x="514.1" y="-187.6" font-family="Times,serif" font-style="italic" font-size="18.00">y</text>
</g>
<!-- p_point_s0_t1_y&#45;&gt;state_s0_t0 -->
<g id="edge10" class="edge">
<title>p_point_s0_t1_y&#45;&gt;state_s0_t0</title>
<path fill="none" stroke="black" d="M705.96,-90.7C703.19,-79.52 681.81,0 633.29,0 204.37,0 204.37,0 204.37,0 161.33,0 147.14,-57.46 142.47,-96.56"/>
<polygon fill="black" stroke="black" points="138.98,-96.24 141.43,-106.55 145.95,-96.96 138.98,-96.24"/>
<text text-anchor="start" x="396.74" y="-10.6" font-family="Times,serif" font-style="italic" font-size="18.00">.5</text>
</g>
<!-- state_s0_t2 -->
<g id="node9" class="node">
<title>state_s0_t2</title>
<ellipse fill="none" stroke="black" cx="787.25" cy="-117" rx="38.37" ry="25.41"/>
<text text-anchor="start" x="772.25" y="-113.6" font-family="Times,serif" font-style="italic" font-size="18.00">s</text>
<text text-anchor="start" x="779.25" y="-113.6" font-family="Times,serif" font-style="italic" baseline-shift="sub" font-size="9.00">0</text>
<text text-anchor="start" x="783.25" y="-113.6" font-family="Times,serif" font-style="italic" font-size="18.00">_t</text>
<text text-anchor="start" x="798.25" y="-113.6" font-family="Times,serif" font-style="italic" baseline-shift="sub" font-size="9.00">2</text>
</g>
<!-- p_point_s0_t1_y&#45;&gt;state_s0_t2 -->
<g id="edge11" class="edge">
<title>p_point_s0_t1_y&#45;&gt;state_s0_t2</title>
<path fill="none" stroke="black" d="M709.15,-92.28C712.8,-93.45 727.4,-98.13 742.92,-103.11"/>
<polygon fill="black" stroke="black" points="742.02,-106.5 752.62,-106.22 744.16,-99.83 742.02,-106.5"/>
<text text-anchor="start" x="722.07" y="-112.6" font-family="Times,serif" font-style="italic" font-size="18.00">.5</text>
</g>
<!-- state_s0_t2&#45;&gt;state_s0_t2 -->
<g id="edge31" class="edge">
<title>state_s0_t2&#45;&gt;state_s0_t2</title>
<path fill="none" stroke="black" d="M778.68,-142.01C778.2,-152.04 781.05,-160.46 787.25,-160.46 791.13,-160.46 793.7,-157.17 794.96,-152.25"/>
<polygon fill="black" stroke="black" points="798.47,-152.27 795.83,-142.01 791.5,-151.68 798.47,-152.27"/>
<text text-anchor="start" x="784.25" y="-171.06" font-family="Times,serif" font-style="italic" font-size="18.00">z</text>
</g>
<!-- state_s1_t2 -->
<g id="node13" class="node">
<title>state_s1_t2</title>
<ellipse fill="none" stroke="black" cx="940.62" cy="-171" rx="38.37" ry="25.41"/>
<text text-anchor="start" x="925.62" y="-167.6" font-family="Times,serif" font-style="italic" font-size="18.00">s</text>
<text text-anchor="start" x="932.62" y="-167.6" font-family="Times,serif" font-style="italic" baseline-shift="sub" font-size="9.00">1</text>
<text text-anchor="start" x="936.62" y="-167.6" font-family="Times,serif" font-style="italic" font-size="18.00">_t</text>
<text text-anchor="start" x="951.62" y="-167.6" font-family="Times,serif" font-style="italic" baseline-shift="sub" font-size="9.00">2</text>
</g>
<!-- state_s0_t2&#45;&gt;state_s1_t2 -->
<g id="edge30" class="edge">
<title>state_s0_t2&#45;&gt;state_s1_t2</title>
<path fill="none" stroke="black" d="M820.49,-129.88C835.85,-135.89 854.51,-143.02 871.44,-149 879.28,-151.77 887.67,-154.59 895.79,-157.25"/>
<polygon fill="black" stroke="black" points="894.92,-160.65 905.51,-160.4 897.07,-153.99 894.92,-160.65"/>
<text text-anchor="start" x="848.44" y="-156.6" font-family="Times,serif" font-style="italic" font-size="18.00">a</text>
</g>
<!-- state_s2_t1&#45;&gt;state_s2_t1 -->
<g id="edge20" class="edge">
<title>state_s2_t1&#45;&gt;state_s2_t1</title>
<path fill="none" stroke="black" d="M622.25,-296.57C621.56,-306.79 624.9,-315.46 632.29,-315.46 637.02,-315.46 640.09,-311.9 641.5,-306.66"/>
<polygon fill="black" stroke="black" points="645,-306.82 642.32,-296.57 638.03,-306.25 645,-306.82"/>
<text text-anchor="start" x="628.29" y="-326.06" font-family="Times,serif" font-style="italic" font-size="18.00">c</text>
</g>
<!-- p_point_s2_t1_y -->
<g id="node14" class="node">
<title>p_point_s2_t1_y</title>
<ellipse fill="black" stroke="black" cx="707.27" cy="-272" rx="1.8" ry="1.8"/>
</g>
<!-- state_s2_t1&#45;&gt;p_point_s2_t1_y -->
<g id="edge21" class="edge">
<title>state_s2_t1&#45;&gt;p_point_s2_t1_y</title>
<path fill="none" stroke="black" d="M670.63,-272C686.06,-272 701.29,-272 705.27,-272"/>
<text text-anchor="start" x="683.97" y="-282.6" font-family="Times,serif" font-style="italic" font-size="18.00">y</text>
</g>
<!-- p_point_s1_t1_b&#45;&gt;state_s0_t1 -->
<g id="edge15" class="edge">
<title>p_point_s1_t1_b&#45;&gt;state_s0_t1</title>
<path fill="none" stroke="black" d="M546.97,-139.16C549.38,-136.87 556.43,-130.33 563.1,-126 571.76,-120.38 581.47,-115.03 590.79,-110.31"/>
<polygon fill="black" stroke="black" points="592.5,-113.36 599.92,-105.8 589.41,-107.09 592.5,-113.36"/>
<text text-anchor="start" x="567.1" y="-136.6" font-family="Times,serif" font-style="italic" font-size="18.00">.5</text>
</g>
<!-- p_point_s1_t1_b&#45;&gt;state_s2_t1 -->
<g id="edge16" class="edge">
<title>p_point_s1_t1_b&#45;&gt;state_s2_t1</title>
<path fill="none" stroke="black" d="M547.06,-141.48C553.23,-151.04 587.84,-204.68 610.73,-240.15"/>
<polygon fill="black" stroke="black" points="607.91,-242.24 616.28,-248.74 613.8,-238.44 607.91,-242.24"/>
<text text-anchor="start" x="567.1" y="-209.6" font-family="Times,serif" font-style="italic" font-size="18.00">.5</text>
</g>
<!-- p_point_s1_t1_y&#45;&gt;state_s1_t0 -->
<g id="edge18" class="edge">
<title>p_point_s1_t1_y&#45;&gt;state_s1_t0</title>
<path fill="none" stroke="black" d="M542.98,-218.92C531.85,-218.17 440.54,-211.95 366.74,-205 358.23,-204.2 349.18,-203.27 340.44,-202.34"/>
<polygon fill="black" stroke="black" points="340.7,-198.85 330.38,-201.25 339.95,-205.8 340.7,-198.85"/>
<text text-anchor="start" x="396.74" y="-220.6" font-family="Times,serif" font-style="italic" font-size="18.00">.5</text>
</g>
<!-- p_point_s1_t1_y&#45;&gt;state_s1_t2 -->
<g id="edge19" class="edge">
<title>p_point_s1_t1_y&#45;&gt;state_s1_t2</title>
<path fill="none" stroke="black" d="M546.94,-219C553.44,-219 596.38,-219 631.29,-219 631.29,-219 631.29,-219 854.44,-219 874.49,-219 894.17,-208.78 909.56,-197.77"/>
<polygon fill="black" stroke="black" points="911.79,-200.47 917.64,-191.63 907.56,-194.9 911.79,-200.47"/>
<text text-anchor="start" x="722.07" y="-229.6" font-family="Times,serif" font-style="italic" font-size="18.00">.5</text>
</g>
<!-- state_s1_t2&#45;&gt;state_s1_t2 -->
<g id="edge29" class="edge">
<title>state_s1_t2&#45;&gt;state_s1_t2</title>
<path fill="none" stroke="black" d="M930.21,-195.57C929.5,-205.79 932.97,-214.46 940.62,-214.46 945.53,-214.46 948.71,-210.9 950.18,-205.66"/>
<polygon fill="black" stroke="black" points="953.68,-205.83 951.03,-195.57 946.7,-205.24 953.68,-205.83"/>
<text text-anchor="start" x="937.62" y="-225.06" font-family="Times,serif" font-style="italic" font-size="18.00">z</text>
</g>
<!-- p_point_s1_t2_b -->
<g id="node16" class="node">
<title>p_point_s1_t2_b</title>
<ellipse fill="black" stroke="black" cx="1016.61" cy="-171" rx="1.8" ry="1.8"/>
</g>
<!-- state_s1_t2&#45;&gt;p_point_s1_t2_b -->
<g id="edge26" class="edge">
<title>state_s1_t2&#45;&gt;p_point_s1_t2_b</title>
<path fill="none" stroke="black" d="M979.05,-171C995.1,-171 1011.05,-171 1014.79,-171"/>
<text text-anchor="start" x="991.81" y="-181.6" font-family="Times,serif" font-style="italic" font-size="18.00">b</text>
</g>
<!-- p_point_s2_t1_y&#45;&gt;state_s2_t0 -->
<g id="edge22" class="edge">
<title>p_point_s2_t1_y&#45;&gt;state_s2_t0</title>
<path fill="none" stroke="black" d="M706.18,-273.5C705.56,-282.91 700.8,-333.94 670.47,-352 614.02,-385.62 538.11,-344.15 495.48,-314.32"/>
<polygon fill="black" stroke="black" points="497.33,-311.34 487.16,-308.36 493.25,-317.03 497.33,-311.34"/>
<text text-anchor="start" x="567.1" y="-369.6" font-family="Times,serif" font-style="italic" font-size="18.00">.5</text>
</g>
<!-- state_s2_t2 -->
<g id="node15" class="node">
<title>state_s2_t2</title>
<ellipse fill="none" stroke="black" cx="1096.59" cy="-221" rx="38.37" ry="25.41"/>
<text text-anchor="start" x="1081.59" y="-217.6" font-family="Times,serif" font-style="italic" font-size="18.00">s</text>
<text text-anchor="start" x="1088.59" y="-217.6" font-family="Times,serif" font-style="italic" baseline-shift="sub" font-size="9.00">2</text>
<text text-anchor="start" x="1092.59" y="-217.6" font-family="Times,serif" font-style="italic" font-size="18.00">_t</text>
<text text-anchor="start" x="1107.59" y="-217.6" font-family="Times,serif" font-style="italic" baseline-shift="sub" font-size="9.00">2</text>
</g>
<!-- p_point_s2_t1_y&#45;&gt;state_s2_t2 -->
<g id="edge23" class="edge">
<title>p_point_s2_t1_y&#45;&gt;state_s2_t2</title>
<path fill="none" stroke="black" d="M709.37,-271.98C716.32,-271.82 754.84,-271 786.25,-271 786.25,-271 786.25,-271 1017.61,-271 1036.43,-271 1054.34,-260.55 1068.24,-249.21"/>
<polygon fill="black" stroke="black" points="1070.7,-251.7 1075.93,-242.49 1066.1,-246.43 1070.7,-251.7"/>
<text text-anchor="start" x="875.44" y="-281.6" font-family="Times,serif" font-style="italic" font-size="18.00">.5</text>
</g>
<!-- state_s2_t2&#45;&gt;state_s2_t2 -->
<g id="edge24" class="edge">
<title>state_s2_t2&#45;&gt;state_s2_t2</title>
<path fill="none" stroke="black" d="M1091.17,-246.44C1090.93,-256.28 1092.74,-264.46 1096.59,-264.46 1099,-264.46 1100.6,-261.26 1101.41,-256.46"/>
<polygon fill="black" stroke="black" points="1104.91,-256.63 1102.01,-246.44 1097.92,-256.22 1104.91,-256.63"/>
<text text-anchor="start" x="1092.59" y="-275.06" font-family="Times,serif" font-style="italic" font-size="18.00">c</text>
</g>
<!-- state_s2_t2&#45;&gt;state_s2_t2 -->
<g id="edge25" class="edge">
<title>state_s2_t2&#45;&gt;state_s2_t2</title>
<path fill="none" stroke="black" d="M1087.37,-245.91C1083.44,-267.81 1086.51,-292.46 1096.59,-292.46 1105.14,-292.46 1108.64,-274.75 1107.12,-256.02"/>
<polygon fill="black" stroke="black" points="1110.56,-255.38 1105.8,-245.91 1103.62,-256.28 1110.56,-255.38"/>
<text text-anchor="start" x="1093.59" y="-303.06" font-family="Times,serif" font-style="italic" font-size="18.00">z</text>
</g>
<!-- p_point_s1_t2_b&#45;&gt;state_s0_t2 -->
<g id="edge28" class="edge">
<title>p_point_s1_t2_b&#45;&gt;state_s0_t2</title>
<path fill="none" stroke="black" d="M1014.83,-169.97C1011.28,-165.32 996.02,-146.14 978.81,-137 934.21,-113.33 875.51,-110.7 835.11,-112.48"/>
<polygon fill="black" stroke="black" points="834.79,-108.99 824.99,-113.03 835.17,-115.98 834.79,-108.99"/>
<text text-anchor="start" x="875.44" y="-124.6" font-family="Times,serif" font-style="italic" font-size="18.00">.5</text>
</g>
<!-- p_point_s1_t2_b&#45;&gt;state_s2_t2 -->
<g id="edge27" class="edge">
<title>p_point_s1_t2_b&#45;&gt;state_s2_t2</title>
<path fill="none" stroke="black" d="M1018.48,-171.56C1022.71,-174.27 1041.54,-186.35 1059.53,-197.88"/>
<polygon fill="black" stroke="black" points="1057.92,-201.01 1068.23,-203.46 1061.7,-195.12 1057.92,-201.01"/>
<text text-anchor="start" x="1031.41" y="-201.6" font-family="Times,serif" font-style="italic" font-size="18.00">.5</text>
</g>
</g>
</svg>
